<?xml version="1.0" encoding="UTF-8" standalone="no"?>
<svg id="Layer_1" viewBox="0 0 739.1 242.9" version="1.1" sodipodi:docname="uwa.svg" inkscape:version="1.2.1 (9c6d41e410, 2022-07-14)" xmlns:inkscape="http://www.inkscape.org/namespaces/inkscape" xmlns:sodipodi="http://sodipodi.sourceforge.net/DTD/sodipodi-0.dtd" xmlns:xlink="http://www.w3.org/1999/xlink" xmlns="http://www.w3.org/2000/svg" xmlns:svg="http://www.w3.org/2000/svg">
<defs id="defs72" />
<sodipodi:namedview id="namedview70" pagecolor="#ffffff" bordercolor="#000000" borderopacity="0.25" inkscape:showpageshadow="2" inkscape:pageopacity="0.0" inkscape:pagecheckerboard="0" inkscape:deskcolor="#d1d1d1" showgrid="false" inkscape:zoom="0.81856314" inkscape:cx="300.5266" inkscape:cy="185.69123" inkscape:window-width="1360" inkscape:window-height="715" inkscape:window-x="-8" inkscape:window-y="-8" inkscape:window-maximized="1" inkscape:current-layer="Layer_1" />
<style id="style2">.st0{fill:#fff}.st1{fill:#21409a}.st2{fill:#ddb10a}</style>
<symbol id="a" viewBox="-35.7 -21.5 71.3 43.1">
<path class="st0" d="M1.2-16.4v31.6c5.5-4 15.8-6.5 24.3-3.4V-20C17.3-23.2 6-21.1 1.2-16.4zM-25.5-20v31.9c8.5-3.1 18.9-.6 24.3 3.4v-31.6C-6-21-17.3-23.1-25.5-20z" id="path4" />
<path class="st0" d="M30 5V-5.4c1.4.1 5.2.9 5.7-.9-.9-2-3-2-5.6-2.2v-8.8H28v32c-11.7-2.5-20.6-1.2-27.8 4-7.1-5.3-16-6.5-27.8-4v-32H-30v8.8c-.4 0-1 .1-1.8.1 0-1.1-.1-.8-3.4-.4-.7 0-.4.9-.4 4.2 0 .2.2.4.5.4 3.3-.3 3.3-.1 3.3-1.1l1.8-.1V5c-.4 0-1 .1-1.8.1 0-1 0-.8-3.4-.4-.7 0-.4 1-.4 4.2 0 .3.2.5.4.5h.1c3.3-.3 3.3 0 3.3-1.1l1.8-.1v9.2c11.4-2.7 20.9-3.1 30 4.1 9.1-7.2 18.6-6.7 30-4.1V8.1c1.6.1 5.2.8 5.7-.9-.9-2-3.1-2-5.7-2.2z" id="path6" />
</symbol>
<path class="st1" d="M 210.4,186.9 C 156.1,265.8 49.8,257.2 3.1,187.3 l 19.1,-17.6 c 38.7,63.4 130.8,63.6 169.6,0 z M 7.9,178.7 c 14,-12.9 11.3,-10.5 14.9,-13.8 3,5.3 6.5,10.2 10.4,14.9 L 37.3,176 C 29.5,166.6 23.8,155.7 20.6,144 L 14,161 0,163 Z M 214,163 l -14,-2 -6.6,-17 c -3.2,11.7 -8.9,22.6 -16.7,32 l 4.1,3.8 c 3.9,-4.7 7.3,-9.6 10.4,-14.9 3.6,3.4 0.9,0.9 14.9,13.8 z M 270.1,6.3 c 0,6.2 0.3,6.5 -0.8,6.4 -2.8,-0.3 -2.8,0.4 -2.8,-2 h -7.3 v 29.2 c 1.4,0.1 2,-0.1 2,0.9 -0.4,3.7 1.7,2.8 -8.7,2.8 -0.4,0 -0.5,-0.2 -0.5,-0.7 0.3,-3.2 -0.4,-2.7 2,-2.9 V 10.7 h -7 c -0.1,1.4 0.2,2 -0.8,1.9 -2.1,-0.2 -2.8,0.1 -2.8,-0.5 V 6.3 Z m 36.2,34.4 c -0.2,2.1 0.1,2.8 -0.5,2.8 -8.8,0 -8.8,0.3 -8.7,-0.7 0.3,-3.2 -0.5,-2.7 1.9,-2.9 V 27 h -16.7 v 12.9 c 1.3,0.1 2,-0.1 1.9,0.9 -0.3,2.1 0,2.8 -0.6,2.8 -8.9,0 -8.9,0.3 -8.8,-0.8 0.3,-3.2 -0.4,-2.7 1.9,-2.9 v -30 c -1.4,-0.1 -2,0.1 -2,-0.9 0.2,-2.2 -0.1,-2.8 0.5,-2.8 8.8,0 8.8,-0.3 8.7,0.7 -0.3,3.2 0.4,2.7 -1.9,2.9 v 12.6 h 16.7 V 9.9 c -1.4,-0.1 -2,0.1 -2,-0.9 0.2,-2.2 -0.1,-2.8 0.5,-2.8 8.8,0 8.8,-0.3 8.7,0.8 -0.4,3.2 0.4,2.7 -2,2.9 v 30 c 1.3,0.1 2,-0.1 1.9,0.9 z m 30.1,-3.4 c 0.6,0 0.4,0.5 0.4,6.2 -25.3,0 -23.9,0.4 -23.8,-0.7 0.3,-3.2 -0.4,-2.7 1.9,-2.9 V 10 c -1.4,-0.1 -2,0.1 -1.9,-0.9 0.2,-2.1 -0.1,-2.8 0.5,-2.8 h 22.4 c 0,6.3 0.2,6.5 -0.8,6.4 -3.2,-0.3 -2.7,0.4 -2.9,-1.9 h -11.9 v 11.3 h 13.5 v 4.4 H 320.3 V 39 H 333 c 0.1,-1.3 -0.1,-2 0.9,-1.9 z M 392.2,7.1 c -0.3,2.9 0.5,2.9 -2.1,2.9 v 19.9 c 0,9.7 -3.8,14.3 -13.5,14.3 -16,0 -13.3,-9.8 -13.3,-34.2 -1.3,-0.1 -2,0.1 -1.9,-0.9 0.2,-2.1 -0.1,-2.8 0.5,-2.8 8.8,0 8.8,-0.3 8.7,0.8 -0.3,3.2 0.5,2.7 -1.9,2.9 v 20.8 c 0,6 1.8,9.2 7.8,9.2 6.8,0 8.3,-4.1 8.3,-9.2 V 9.9 c -1.3,-0.1 -2,0.1 -1.9,-0.9 0.3,-2.1 0,-2.8 0.6,-2.8 8.8,0 8.9,-0.3 8.8,0.8 z m 40.2,0 c -0.3,3 0.5,2.9 -2.4,2.9 v 33.6 h -3.6 c -0.2,0 -0.4,-0.1 -0.5,-0.3 L 406.3,15.9 V 40 c 0.6,0 1.3,0 1.9,0.1 0.3,0 0.5,0.3 0.4,0.8 -0.4,3.6 1.8,2.8 -8.7,2.8 -0.4,0 -0.6,-0.3 -0.5,-0.8 0.3,-3.2 -0.5,-2.7 1.9,-2.9 V 9.9 c -1.4,-0.1 -2,0.1 -1.9,-0.9 0.4,-3.6 -1.3,-2.8 5.8,-2.8 0.2,0 0.5,0.1 0.6,0.3 l 19.2,27 V 9.9 c -1.4,-0.1 -2,0.1 -1.9,-0.9 0.2,-2.2 0,-2.8 0.5,-2.8 8.8,0.1 8.9,-0.2 8.8,0.9 z m 16.9,33.6 c -0.2,2.2 0.1,2.8 -0.5,2.8 -8.8,0 -8.8,0.3 -8.7,-0.7 0.3,-3.2 -0.4,-2.7 1.9,-2.9 V 10 c -1.4,-0.1 -2,0.1 -2,-0.9 0.2,-2.2 0,-2.8 0.5,-2.8 8.8,0 8.8,-0.3 8.7,0.8 -0.4,3.2 0.4,2.7 -2,2.9 v 29.9 c 1.3,0.2 2,-0.1 1.9,0.9 z M 488.4,7.1 c -0.3,3.2 0.4,2.7 -1.9,2.9 -2.6491,7.228555 -4.7078,12.905203 -6.32073,17.362496 C 473.93792,44.610333 474.37143,43.6 473.1,43.6 l -4,-0.1 c -0.4,0 -12.6,-33.1 -12.8,-33.4 -1.3,-0.1 -2,0.1 -1.9,-0.9 0.3,-2.2 0,-2.8 0.5,-2.8 9,0 9,-0.3 8.9,0.7 -0.3,3.2 0.4,2.7 -1.9,2.9 l 9.6,27 h 0.2 l 9.6,-27.1 c -1.3,-0.1 -2,0.1 -1.9,-0.9 0.3,-2.2 0,-2.8 0.6,-2.8 8.7,0 8.7,-0.3 8.6,0.7 z m 28.5,30.2 c 0.6,0 0.4,0.5 0.4,6.2 -25.3,0 -23.9,0.4 -23.8,-0.7 0.3,-3.2 -0.4,-2.7 1.9,-2.9 V 10 c -1.4,-0.1 -2,0.1 -1.9,-0.9 0.2,-2.1 -0.1,-2.8 0.5,-2.8 h 22.4 c 0,6.3 0.2,6.5 -0.8,6.4 -3.2,-0.3 -2.7,0.4 -2.9,-1.9 h -11.9 v 11.3 h 13.5 v 4.4 H 500.8 V 39 h 12.7 c 0.1,-1.3 -0.2,-2 0.8,-1.9 z m 34.3,3.4 c -0.2,2.2 0.1,2.8 -0.5,2.8 h -5.4 l -8.1,-14.3 h -5.3 v 10.7 c 1.4,0.1 2,-0.1 2,0.9 -0.2,2.2 0.1,2.8 -0.5,2.8 -8.8,0 -8.8,0.3 -8.7,-0.7 0.4,-3.2 -0.4,-2.7 2,-2.9 V 10 c -1.4,-0.1 -2,0.1 -1.9,-0.9 0.3,-2.1 0,-2.8 0.6,-2.8 12.7,0 24.6,-1.7 24.6,11.1 0.2,4.7 -2.7,9 -7.1,10.7 l 6.8,11.8 c 1.3,0.2 2,-0.1 1.9,0.9 z m -7.1,-23.3 c 0,-7.7 -6.5,-6.9 -12.3,-6.9 v 14.4 c 5.1,0 12.4,0.9 12.4,-7.4 z m 36.5,15.9 c 0,11 -13.8,12.5 -23.5,8.4 0,-6.2 -0.3,-6.5 0.9,-6.4 4,0.3 3.4,-0.6 3.5,3.2 6,1.4 13.8,1.5 13.8,-4.6 0,-4.3 -1.6,-5.1 -9,-7.8 -5.3,-2 -9,-4.8 -9,-10.1 0,-9.9 11.6,-11.4 21.2,-9 v 6.3 c 0,1 -1.5,0.6 -3.8,0.4 -0.7,0 -0.5,-1 -0.5,-3 -1.3,-0.2 -2.5,-0.3 -3.8,-0.3 -4.4,0 -7.3,2 -7.3,5.3 0,8.5 17.8,4.7 17.8,17.5 z m 16,7.4 c -0.2,2.1 0.1,2.8 -0.5,2.8 -8.8,0 -8.8,0.3 -8.7,-0.7 0.3,-3.2 -0.4,-2.7 2,-2.9 V 10 c -1.3,-0.1 -2,0.1 -1.9,-0.9 0.3,-2.2 0,-2.8 0.6,-2.8 8.8,0 8.9,-0.3 8.8,0.8 -0.3,3.2 0.4,2.7 -1.9,2.9 v 29.9 c 1.4,0.2 2,-0.1 1.9,0.9 z M 629.1,6.3 c 0,6.2 0.3,6.4 -0.8,6.3 -2.9,-0.3 -2.9,0.4 -2.9,-2 h -7.3 v 29.2 c 1.3,0.1 2,-0.1 1.9,0.9 -0.4,3.6 1.8,2.8 -8.7,2.8 -0.4,0 -0.6,-0.3 -0.5,-0.7 0.3,-3.2 -0.4,-2.7 1.9,-2.9 V 10.7 H 606 c -0.1,1.4 0.1,2 -0.9,1.9 -2.1,-0.2 -2.8,0.1 -2.8,-0.5 V 6.3 Z M 661.9,7 c -0.3,3.2 0.4,2.7 -1.9,2.9 l -10.5,20.5 v 9.5 c 1.3,0.1 2,-0.1 1.9,0.9 -0.2,2.2 0.1,2.8 -0.5,2.8 -8.8,0 -8.8,0.3 -8.7,-0.8 0.3,-3.2 -0.4,-2.7 1.9,-2.9 V 30.4 L 633.8,9.9 c -1.3,-0.1 -2,0.1 -1.9,-0.9 0.2,-2.1 -0.1,-2.8 0.5,-2.8 8.8,0 8.8,-0.3 8.7,0.8 -0.3,3.2 0.4,2.7 -1.9,2.9 l 7.5,15.4 h 0.2 l 7.7,-15.5 c -1.3,-0.1 -2,0.1 -1.9,-0.9 0.2,-2.2 -0.1,-2.8 0.5,-2.8 8.7,0 8.7,-0.3 8.6,0.7 z m 48,17.9 c 0,12.7 -5.6,18.8 -15,18.8 -9.4,0 -15,-6.3 -15,-18.9 0,-9 3.4,-18.9 15.1,-18.9 10.1,0.1 15,7.8 14.9,19 z m -24.3,-0.1 c 0,6.3 1.5,14.4 9.3,14.4 6.5,0 9.4,-5.6 9.4,-14.5 0,-6.4 -1.6,-14.3 -9.3,-14.3 -7.7,0 -9.4,8.2 -9.4,14.4 z m 53,-18.5 c 0,6.3 0.3,6.5 -0.8,6.4 -3.2,-0.3 -2.7,0.4 -2.9,-1.9 h -12 v 11.4 h 13 v 4.4 h -13 V 40 c 1.3,0.1 2,-0.1 1.9,0.9 -0.3,2.1 0,2.8 -0.6,2.8 -8.9,0 -8.9,0.3 -8.8,-0.8 0.3,-3.2 -0.4,-2.7 1.9,-2.9 V 9.9 c -1.4,-0.1 -2,0.1 -2,-0.9 0.2,-2.2 -0.1,-2.8 0.5,-2.8 z M 345,60.8 c 0.9,0 1.3,0.6 1.2,1.7 -0.7,7 0.9,6 -4.1,6.4 l -17.9,70.5 c -0.5,2.2 -2.5,3.7 -4.8,3.7 l -8.2,-0.3 c -2.1,0 -0.7,3.3 -16.3,-63.9 h -0.1 l -14.2,59.3 c -0.5,2.2 -1.9,5.1 -5.6,5 l -8,-0.3 c -2,0 -0.5,3.8 -19.3,-73.9 l -3.1,-0.2 c -0.7,0 -1,-0.7 -1,-1.7 0.5,-4.6 -0.2,-6.1 1.2,-6.1 H 262 c 0.9,0 1.3,0.7 1.2,1.7 -0.7,7 0.9,6 -4.1,6.4 l 13.6,61.9 h 0.1 L 288,66 c 0.9,-3.7 2.6,-5 5.2,-4.9 7,0.3 7.3,0 7.9,2.4 l 15.4,67.6 h 0.1 l 14.2,-62 -3.2,-0.2 c -0.8,0 -1.1,-0.7 -1,-1.7 0.5,-4.7 -0.2,-6.1 1.1,-6.1 z m 59.6,69.4 v 12.9 h -51.4 c -0.9,0 -1.3,-0.6 -1.2,-1.7 0.7,-7 -1,-6 4.2,-6.3 V 68.9 l -3.3,-0.2 c -0.7,0 -1.1,-0.7 -1,-1.7 0.5,-4.7 -0.2,-6.2 1.2,-6.2 h 49.6 v 12.9 c 0,0.8 -0.6,1.3 -1.7,1.2 -7,-0.7 -6,1 -6.4,-4.2 h -26.4 v 25.1 h 29.9 v 9.8 h -29.9 v 27.6 h 28.2 l 0.2,-3.3 c 0,-0.8 0.7,-1.1 1.7,-1 5.9,0.4 6.3,0.1 6.3,1.3 z m 60,-9.7 c 0,24.3 -30.5,27.7 -52.1,18.6 v -12.8 c 0,-1 0.7,-1.5 2,-1.4 6.5,0.5 7.2,0.1 7.4,1.4 l 0.2,5.7 c 13.3,3.1 30.5,3.3 30.5,-10.3 0,-9.4 -3.6,-11.3 -19.9,-17.2 -11.9,-4.4 -20,-10.5 -20,-22.3 0,-21.9 25.4,-25.2 46.8,-19.9 v 13.9 c 0,2 -2.1,1.4 -8.4,1 -1.3,0 -1.1,-0.9 -1.3,-6.7 -2.8,-0.3 -5.6,-0.5 -8.4,-0.5 -9.9,0 -16.4,4.6 -16.4,11.9 0,19 39.4,10.4 39.4,38.7 z M 528,60.8 v 12.9 c 0,0.8 -0.6,1.3 -1.7,1.2 -4.9,-0.5 -5.9,0.2 -6.2,-1.2 0,-0.2 -0.2,-3 -0.2,-3.2 H 503.8 V 135 c 5.1,0.3 4.4,-0.9 3.9,7.2 0,1.2 0.4,0.9 -19,0.9 -1.6,0 -1.2,-1.6 -0.9,-7 0,-1 1.2,-0.9 3.9,-1.1 V 70.6 h -15 c -0.3,5.1 0.9,4.4 -7.2,3.9 -1.2,0 -0.9,0.2 -0.9,-13.7 z m 60.3,69.4 v 12.9 h -51.4 c -0.8,0 -1.3,-0.6 -1.2,-1.7 0.7,-7 -1,-6 4.2,-6.3 V 68.9 l -3.2,-0.2 c -0.7,0 -1,-0.7 -1,-1.7 0.5,-4.7 -0.2,-6.2 1.2,-6.2 h 49.7 v 12.9 c 0,0.8 -0.6,1.3 -1.7,1.2 -7,-0.7 -6,1 -6.3,-4.2 H 552.2 V 95.8 H 582 v 9.8 h -29.9 v 27.6 h 28.2 l 0.2,-3.3 c 0,-0.8 0.7,-1.1 1.7,-1 5.7,0.4 6.2,0.1 6.1,1.3 z m 68.2,5.1 c 0.8,0 1.1,0.7 1,1.7 -0.5,4.7 0.2,6.1 -1.1,6.1 h -12.1 l -18,-31.8 h -11.7 v 23.8 l 3.3,0.2 c 0.8,0 1.1,0.8 1,1.7 -0.5,4.7 0.2,6.2 -1.2,6.2 h -18.2 c -0.8,0 -1.2,-0.6 -1.1,-1.7 0.7,-7 -1,-6 4.3,-6.3 V 68.9 l -3.3,-0.2 c -0.7,0 -1,-0.7 -1,-1.7 0.6,-4.6 -0.2,-6.2 1.2,-6.2 h 24 c 20.7,0 30.5,7.8 30.5,24.6 0,10.7 -5.6,19.8 -15.7,23.7 l 15.1,26 z M 641.8,85.4 c 0,-17 -14.4,-15.3 -27.2,-15.3 v 31.7 c 11.1,0.1 27.3,2.1 27.2,-16.4 z m 96.1,-24.6 c 0.9,0 1.3,0.6 1.2,1.7 -0.5,4.9 0.2,5.9 -1.1,6.1 -1.3,0.1 -2.7,0.2 -4,0.2 V 143 h -8 c -1,0 2,3.8 -44.5,-61.3 V 135 c 1.4,0 2.9,0.1 4.3,0.2 0.7,0 1.1,0.8 1,1.7 -0.5,4.7 0.2,6.2 -1.2,6.2 h -18.2 c -0.8,0 -1.2,-0.6 -1.1,-1.7 0.7,-7 -1,-6 4.3,-6.3 V 68.9 l -3.3,-0.2 c -0.7,0 -1,-0.7 -1,-1.7 0.6,-4.7 -0.2,-6.2 1.2,-6.2 13.2,0 12.3,-0.3 13,0.7 l 42.3,59.4 v -52 l -3.3,-0.2 c -0.7,0 -1,-0.7 -1,-1.7 0.5,-4.7 -0.2,-6.2 1.2,-6.2 z M 307,225.1 c -0.4,3.7 0.1,5.3 -0.9,5.3 h -15.9 c -0.7,0 -1.1,-0.5 -1,-1.4 0.6,-6 -0.8,-5.1 3.5,-5.4 l -3.5,-10.1 h -28.8 l -3.4,10 c 2.9,0.2 3.8,-0.1 3.6,1.6 -0.5,4 0.1,5.2 -1,5.2 h -15.3 c -0.8,0 -1.1,-0.6 -1,-1.5 0.6,-6 -0.9,-5.2 3.5,-5.5 l 20.3,-56.6 c -2.8,-0.2 -3.8,0.1 -3.6,-1.7 0.4,-4 -0.2,-5.3 1,-5.3 H 279 l 24.3,63.5 c 2.8,0.1 3.7,-0.2 3.5,1.6 z M 286.3,205 274.5,171.5 h -0.1 L 263.3,205 Z m 77.4,-45.1 c 0.7,0 1.1,0.5 1,1.4 -0.4,4.2 0.1,5.1 -1,5.3 -0.4,0 -2.5,0.2 -2.9,0.2 v 37.6 c 0,18.4 -7.2,27 -25.5,27 -17.5,0 -25.1,-5.9 -25.1,-27 v -37.5 c -2.9,-0.2 -3.8,0.2 -3.6,-1.6 0.4,-4 -0.2,-5.2 1,-5.2 h 15.5 c 0.7,0 1.1,0.6 1,1.5 -0.6,6 0.8,5.2 -3.6,5.5 v 39.4 c 0,11.3 3.4,17.4 14.8,17.4 12.7,0 15.6,-7.8 15.6,-17.3 V 167 c -4.3,-0.3 -3.8,0.8 -3.4,-6.2 0,-0.4 0.2,-0.7 0.6,-0.7 h 0.1 z m 51.5,51.1 c 0,20.9 -26.2,23.7 -44.5,15.9 v -11 c 0,-0.8 0.7,-1.3 1.8,-1.2 5.5,0.5 6.2,0 6.4,1.2 l 0.2,4.9 c 11.4,2.7 26.2,2.8 26.2,-8.8 0,-8.1 -3,-9.7 -17,-14.7 -10.1,-3.8 -17.1,-9 -17.1,-19.1 0,-18.8 21.7,-21.6 40,-17.1 V 173 c 0,1.7 -1.8,1.2 -7.2,0.8 -1.1,0 -0.9,-0.8 -1.1,-5.7 -2.4,-0.3 -4.7,-0.4 -7.1,-0.5 -8.4,0 -14,3.9 -14,10.2 0.1,16.3 33.8,9 33.8,33.1 h -0.4 z m 55.5,-51.1 V 171 c 0,0.7 -0.6,1.1 -1.5,1 -4.2,-0.4 -5.1,0.1 -5.3,-1 l -0.2,-2.7 H 450 v 55.2 c 4.3,0.3 3.8,-0.8 3.4,6.2 0,1 0.4,0.7 -16.2,0.7 -1.4,0 -1,-1.3 -0.7,-6 0,-0.4 0.3,-0.7 0.7,-0.7 l 2.6,-0.2 V 168.3 H 427 c -0.3,4.3 0.8,3.8 -6.2,3.4 -1,0 -0.7,0.1 -0.7,-11.7 z m 57.4,65.2 c -0.5,4 0.1,5.3 -1,5.3 h -10.4 l -15.4,-27.2 h -10 v 20.3 c 2.9,0.2 3.8,-0.1 3.6,1.6 -0.5,4 0.1,5.3 -1,5.3 h -15.5 c -0.8,0 -1.1,-0.5 -1,-1.4 0.6,-6 -0.8,-5.1 3.6,-5.4 V 167 c -2.9,-0.2 -3.8,0.1 -3.7,-1.6 0.4,-4 -0.2,-5.3 1,-5.3 24,0 46.5,-3.1 46.5,21.1 0,9.1 -4.8,17 -13.5,20.2 l 12.9,22.2 c 2.8,0.2 3.8,-0.1 3.6,1.6 z M 514.7,181 c 0,-14.6 -12.4,-13.1 -23.3,-13.1 V 195 c 9.3,0.1 23.3,1.8 23.3,-14 z m 81.2,44.1 c -0.4,3.7 0.1,5.3 -0.9,5.3 h -15.9 c -0.7,0 -1.1,-0.5 -1,-1.4 0.6,-6 -0.8,-5.1 3.5,-5.4 l -3.5,-10 h -28.7 l -3.4,10 c 2.9,0.2 3.9,-0.1 3.7,1.7 -0.4,4 0.2,5.3 -1,5.3 h -15.4 c -0.7,0 -1.1,-0.5 -1,-1.4 0.6,-6 -0.8,-5.1 3.6,-5.4 l 20.3,-56.6 c -2.8,-0.2 -3.7,0.1 -3.5,-1.6 0.5,-4 -0.1,-5.2 1,-5.2 H 568 l 24.3,63.5 c 2.8,0.2 3.8,-0.1 3.6,1.6 z M 575.2,205 563.4,171.5 h -0.1 L 552.2,205 Z m 71.4,14.3 v 11.1 h -44 c -0.7,0 -1.1,-0.5 -1,-1.4 0.6,-6 -0.8,-5.1 3.6,-5.4 V 167 c -2.9,-0.2 -3.8,0.1 -3.6,-1.6 0.4,-4 -0.2,-5.3 1,-5.3 h 15.5 c 0.7,0 1.1,0.5 1,1.4 -0.6,6 0.8,5.1 -3.6,5.4 V 222 h 24.3 c 0.2,-2.9 -0.1,-3.8 1.7,-3.7 4.5,0.2 5.3,0 5.3,1 z m 23,5.8 c -0.5,4 0.2,5.3 -1,5.3 H 653 c -0.7,0 -1.1,-0.5 -1,-1.4 0.6,-6 -0.8,-5.1 3.6,-5.4 V 167 c -2.9,-0.2 -3.8,0.1 -3.6,-1.6 0.4,-4 -0.2,-5.3 1,-5.3 h 15.5 c 0.7,0 1.1,0.5 1,1.4 -0.6,6 0.8,5.1 -3.6,5.4 v 56.6 c 2.9,0.1 3.9,-0.2 3.7,1.6 z m 69.5,0 c -0.4,3.8 0.1,5.3 -0.9,5.3 h -15.9 c -0.7,0 -1.1,-0.5 -1,-1.4 0.6,-6 -0.8,-5.1 3.5,-5.4 l -3.5,-10.1 h -28.8 l -3.4,10.1 c 2.9,0.2 3.8,-0.1 3.6,1.6 -0.5,4 0.1,5.3 -1,5.3 h -15.3 c -0.8,0 -1.1,-0.5 -1,-1.4 0.6,-6 -0.8,-5.1 3.5,-5.4 l 20.3,-56.6 c -2.8,-0.1 -3.8,0.2 -3.6,-1.6 0.4,-4 -0.2,-5.2 1,-5.2 H 711 l 24.3,63.5 c 2.8,0.2 3.7,-0.1 3.5,1.7 z M 718.4,205 706.6,171.5 h -0.1 L 695.3,205 Z M 189.7,6.3 H 24.4 v 59.9 c 0.3,18.4 -4,91.6 82.6,142.8 86.7,-51.2 82.3,-124.3 82.6,-142.8 z" id="path9" style="stroke-width:0" sodipodi:nodetypes="cccccccccccccccccccccccccccscccccscccsccccccsccccsccccccscccccccccccsccccccccccccccssccsccsssccscccccscccccsccccscccccccsccccscccccccsccccsccccccsccccccccscccccccccccccscccccsccccsccccccccccccccscscsccsscccsccccscccccccccccscccccscccccccscccccsccccccscccssccsssssccccccccccsccccccccccccccccccccssscccccccccccccscscccccscscccccccccccsccssccscscsccsscccsccccccscccccccccscccccscsccccccccccccccsccccccsscccccssscccccccsccccsccccsscccccscccccsscssccccccssccccscccccccccccccsssccssccsssccsccscssccscscsccccccscsccccccscccccccccscccccssccccssccccsccscssccccccssccccscccccccccccsccccssccccccccssccccsscccccssccccccssccccsccccccccccccccc" inkscape:label="path9" />
<path class="st1" d="M185.9 6.3H28.2v59.9c.3 18.4-3.8 91.6 78.8 142.8 82.7-51.2 78.5-124.3 78.8-142.8V6.3z" id="path11" />
<path class="st2" d="M189.7 6.3H24.4V0h165.3v6.3zM35.3 130.4c10.5 25.7 31.1 54.5 71.7 78.5 40.6-24 61.2-52.8 71.7-78.5L107 64.1l-71.7 66.3z" id="path13" />
<use xlink:href="#a" width="71.3" height="43.1" x="-35.7" y="-21.5" transform="translate(146.085 42.725) scale(1.0001)" id="use15" />
<path class="st0" d="M111.2 155.9c5.1 2.6 13.2 5.8 16.4 1.1.5-.6.7-1.4.8-2.1-3.4 1.3-9.1 0-12.6-.9-1.1 1-2.7 1.4-4.2 1-.1.2-.2.5-.4.9zm7-26.8c-.6 1.5-1.7 2.8-3.2 3.6v1c7-3.1 22.6-11.4 22.6-19 .1-1.7-.7-3.4-2.1-4.5-3.1 7.3-10.4 14.6-17.3 18.9zm-1.1 19.8c-1.1 1.1-2.6 1.7-4.1 1.6l-.3.9c6.5 1.8 18 4.1 20.4-2.2.2-.5.3-1.1.2-1.6-.6.3-1.2.5-1.8.7-2.7.9-7.5 1.1-14.4.6zm1.7-10.1c-1 1.4-2.5 2.3-4.1 2.6 0 .3-.1.6-.1.9 8.3-.3 24.1-2 24.2-10.3 0-.9-.2-1.8-.7-2.6-3.5 4.8-13.4 7.9-19.3 9.4zm-8.8 19.1c-.2.4-.4.7-.7 1.1 3 1.7 6.2 3 9.6 3.9-3 3.5-7.9 1.4-11.7-1.1-.3.3-.5.6-.8.8 2 1.4 4.2 2.5 6.5 3.2-2.5 2-6.1.3-8.8-1.6-3.3 1.7-7 1.3-10.4-2-.1 0-.6.6-.6.6 3.9 4.3 9 3.8 10.8 2.7 3.4 2.4 8.1 4 10.6.7 2.5.4 5-.8 6.3-2.9 1.9.1 4.2-.1 4.9-1.8-4.8 1.4-10.8-1.1-15.4-3.3l-.3-.3z" id="path17" />
<path class="st0" d="M119.3 133.7c-.9 1.7-2.5 2.9-4.3 3.4v1c7-1.6 21.7-5.9 23.3-12.8.5-1.6.1-3.3-.9-4.5-3.9 5.1-12 10.3-18.1 12.9zm-.7 10.1c-1.2 1.3-2.8 2.1-4.6 2.2-.1.3-.1.5-.2.8 7.9.9 22.2 1.6 23.6-6.2.2-.9.1-1.7-.2-2.6-3.9 4-13.1 5.3-18.6 5.8zm-.2-21.8c-.1 2.5-1.5 4.8-3.7 6.1 0 .3.1.7.1 1 10.3-5.6 20-17.2 19.6-23.3-.2-2.7-1.6-4.9-3.4-5.7.5 6.5-8.1 17-12.6 21.9z" id="path19" />
<path class="st0" d="M127.6 95.4c-.1 3.3-4.6 11.5-11.8 20.6.8 1.4.4 4.4-2 6.8l.3 1.3c12.3-12 18.7-25.7 13.5-28.7z" id="path21" />
<path d="M74 121.5c.6 6.7-1.9 10 .2 9.7.9-2.1 2-4.2 3.3-6.2-.5-1.7-1.8-3-3.5-3.5z" id="path23" />
<path d="M139.9 128.1c1.8-3 1.6-6.8-.6-9.5 2-3.5.9-8.7-2.5-10.9.5-3.8-.8-8.2-4.8-9.7-.6-2.9-2.2-5.4-4.5-7.3-2.2 9.6-9.3 18.7-11.8 22.3-8 11.5-7.5 31.2-19.1 39.2 0-10.7 10.3-29.8 6.9-40.7-2.6-8.5-10.1-10.2-18-6.6-4.4 2-9.1 3.8-11.2 8.6-.8 1.8-1.2 3.7-1 5.7.1 1 1.3 1.2 1.8.2.2-.4.4-.9.4-1.4.1-.5.6-.9 1.1-.9.5.1.9.6.9 1.1 0 .2-.1.3-.2.5-.9 1.3-1.4 2.8 0 3.5 2.1.9 5 .2 7.4-5.1.8-1.5.7-3.1 1.9-4.4 2-2.3 7.7-3.8 10.2-.7 7.9 9.6-10.6 23.9-17 39.2-7.7 18.6 5.5 36.8 26.8 36.8 13.6 0 22-5.9 26.8-13-5.4-.4-10.5-2.8-14.2-6.7 1.3-.3 2.4-1.1 3-2.2 1.8-.2 4.8-.3 5.9-3.5.4-.9.6-1.9.7-2.8 1.6-1 2.6-2.7 2.5-4.6 3.2-1.3 5.2-4.5 5.1-7.9 2.6-1.3 5.4-5.8 3.5-10 2.2-2.3 2.1-6.1.4-8.7l-.4-.5zm-6.5 17.4c-4.7 2.5-14.2 1.9-19.6 1.3.1-.3.1-.5.2-.8 1.8-.2 3.4-1 4.6-2.3 5.5-.5 14.7-1.8 18.6-5.7.9 2.2-.1 5.5-3.8 7.4v.1zm-4.6 7.3c-3 1-8.9.5-16-1.5l.3-.9c1.6.1 3.1-.5 4.2-1.6 6.9.5 11.7.3 14.5-.7.6-.2 1.2-.4 1.8-.7.2 1.6-1.2 4.4-4.6 5.3l-.2.1zm-8.2 10.3c-1.3 2.2-3.8 3.3-6.3 2.9-2.5 3.3-7.2 1.6-10.6-.7-1.4.9-6.6 1.8-10.7-2.7-.1-.1.5-.7.6-.6 3.4 3.3 7.2 3.7 10.4 2 2.7 1.8 6.2 3.6 8.8 1.6-2.3-.7-4.5-1.8-6.5-3.2.3-.3.6-.5.8-.8 3.9 2.4 8.7 4.5 11.8 1-3.3-.9-6.6-2.2-9.6-3.9l.7-1.1c4.5 2.2 10.6 4.7 15.4 3.3-.6 1.8-2.9 2-4.8 1.9v.3zm-9.4-7.3c.2-.3.3-.6.4-1 1.5.4 3.1 0 4.2-1 3.4.9 9.1 2.2 12.5.9-.1 2.6-3 8.2-17.1 1.1zm18-55.2c-.6 6.8-9.4 17.7-15.2 23.3l-.2-1.3c2.4-2.4 2.7-5.4 2-6.8 7.2-9.1 11.7-17.3 11.8-20.6 1.4.8 1.9 2.9 1.6 5.4zm1.8-.6c2.9 1.2 4.3 5.8 2.8 9.2-3.3 7.7-11.3 15.5-19 19.7 0-.4-.1-.7-.1-1 2.2-1.3 3.6-3.6 3.7-6.1 4.5-4.8 13.1-15.3 12.6-21.8zm5.6 28c-3.8 4.9-15.7 8.4-21.7 9.8v-1c1.8-.5 3.4-1.7 4.3-3.4 6.1-2.6 14.2-7.8 18.1-13 1.9 2.2 1.3 5.4-.7 7.6zm-21.6 5.6v-1c1.5-.8 2.6-2.1 3.2-3.6 6.9-4.3 14.2-11.6 17.4-18.9 1.4 1.1 2.1 2.8 2.1 4.5-.1 7.6-15.7 15.9-22.7 19zm-.4 8.6c0-.3.1-.6.1-.9 1.7-.3 3.2-1.2 4.2-2.6 5.9-1.4 15.8-4.5 19.3-9.4.9 1.6.9 3.6 0 5.2-2.9 6.1-16.9 7.5-23.6 7.7z" id="path25" />
<use xlink:href="#a" width="71.3" height="43.1" x="-35.7" y="-21.5" transform="translate(68.005 42.725) scale(1.0001)" id="use27" />
<path class="st0" d="M38.7 203.7c1-1.3 2.6-.3 3.8.9l-.5.7c-.1.1-.1.1 0 .2l.7.6c.1.1.3.1.3 0l1.2-1.6c-1.9-2.4-5-4.3-7-1.8-2.3 3.1 2.9 5.5 1.1 7.9-1.1 1.5-3.1 0-4.3-1.5l.5-.6c.1-.1.1-.1 0-.2l-.7-.6c-.1-.2-.2-.2-.3 0l-1.1 1.4c1.6 2.8 5.3 5.1 7.5 2.4 2.5-3.2-2.7-5.6-1-7.8h-.2zm11.4 16.4l-3.4-2 2-3.4 3.6 2.1.7-1.2-3.7-2.1 1.8-3.1 3.2 1.9c-.4.6-.3.4.4 1 .1.1.2.1.3 0l.9-1.6-6-3.6c0-.1 0-.1-.1-.1s-.1 0-.1.1c-.7 1-.6.8 0 1.2l-4.8 8.1c-.6-.3-.4-.2-1 .5-.1.1-.1.3 0 .3l6.3 3.7.9-1.6v-.1c-.9-.5-.8-.8-1.3-.1h.3zm13.2 6.3l-3.7-1.6 1.5-3.6 3.9 1.7.6-1.3-3.9-1.6 1.4-3.3 3.4 1.5c-.2.7-.2.5.6 1 .1.1.2.1.3 0l.7-1.7-6.5-2.8h-.1v.1c-.5 1.1-.5.9.1 1.2l-3.7 8.6c-.7-.2-.5-.1-.9.6-.1.1-.1.3 0 .3l6.7 2.9.7-1.7s0-.1-.1-.1c-.9-.4-.8-.7-1.2.1l.2-.3zm16.1-5.4c-.1 0-.1 0-.1.1-.4 1.1-.3.9.3 1.1l-4.9 3 1.1-4c.7.2.5.2.8-.7.1-.1 0-.2-.1-.2l-2.5-.7c0-.1-.1-.1-.2 0-.1 0-.1.1 0 .1-.4 1.2-.4 1 .2 1.2l-2.6 9c-.7-.1-.5-.1-.8.7-.1.2 0 .3.1.3l2.4.7c.1 0 .1 0 .1-.1.4-1.1.3-.9-.3-1.1l.8-3 1.3-.8 2 6.1 1.5.5h.1c.4-1.1.3-.9-.3-1.1l-2.1-6.2 4.7-2.8c.7.2.5.1.8-.7 0-.1 0-.2-.1-.3l-2.2-1.1zm26.8 3.7c-.1 0-.1 0-.1.1-.1 1.2-.1 1 .5 1l-2.5 8.6-1.7-9.7c0-.2-.1-.3-.3-.3-2-.2-1.2-1.1-4.3 9.6l-1.5-8.8c.7 0 .5 0 .6-.9 0-.1 0-.2-.2-.3l-2.5-.1c-.1 0-.1 0-.1.1-.2 1.2-.1 1 .5 1l1.9 10.3c0 .2.1.3.2.3 2.3.2 1.4 1.1 4.4-8.8l1.5 8.9c0 .2.1.3.2.3 2.3.2 1.3 1.4 4.9-10.2.7 0 .5 0 .6-.8 0-.1 0-.2-.1-.2l-2-.1zm11.4 9.9l-.8-9.3c.2 0 .6 0 .5-.2v-.8c0-.1 0-.2-.1-.2l-2.5.2c-.1 0-.1 0-.1.1 0 1.2 0 1 .7 1l.8 9.3c-.7.1-.5.1-.5.9 0 .1.1.2.2.2l2.6-.2c.1 0 .1 0 .1-.1v-.1c0-1.3 0-1.1-.6-1.1l-.3.3zm8.1-8.6c-.3-1.6 1.5-2.1 3.1-2.2l.2.8c0 .1.1.1.2.1l.9-.1c.2 0 .3-.1.2-.3l-.4-2c-3-.2-6.5 1-6 4 .8 3.8 6 1.4 6.7 4.4.4 1.9-2 2.3-4 2.2l-.2-.8-.1-.1-.9.1c-.2 0-.2.1-.2.2l.4 1.7c3.2.7 7.4-.6 6.7-4-.6-3.9-5.9-1.7-6.4-4.3l-.2.3zm21.5-3c-2-6-5.9-4.1-10.6-2.5-.1 0-.1.1-.1.1.1.2.2 1 .4.9l.4-.1 3 8.9c-.7.3-.5.2-.3 1 0 .1.1.2.2.2 4.5-1.5 9-2.4 7-8.5z" id="path29" />
<path class="st1" d="M141.8 229.6l-2.9-8.5c3.3-1.1 5.2-1.6 6.5 2.4 1.7 4.8-1.7 5.4-3.6 6.1z" id="path31" />
<path class="st0" d="M161.3 216.5c-1.6-3.1-4-4.6-6.8-3.2-3.3 1.6-2.8 4.9-1.6 7.4 1.8 3.5 4.2 4.5 6.8 3.2s3.3-3.9 1.6-7.4z" id="path33" />
<path class="st1" d="M159.1 222.6c-2.2 1.1-3.8-1-4.6-2.7s-1.6-4.2.6-5.3 3.7.9 4.6 2.7c1.2 2.4 1.2 4.4-.6 5.3z" id="path35" />
<path class="st0" d="M178.9 210.4l-5.7-7.4c.1-.1.5-.3.4-.4l-.4-.6c-.1-.1-.2-.1-.3-.1l-1.5 1.1c-.1.1-.2.2-.1.3l1.9 8.7c-.1-.1-7.8-4.7-7.9-4.6l-1.5 1c-.1 0-.1 0-.1.1s0 .1.1.1c.6 1 .5.9 1 .5l5.1 7.9c-.6.5-.4.3 0 1.1.1.1.2.2.3.1l2-1.4v-.1c-.6-1-.5-.8-1-.5l-4-6c7.3 4.4 6.4 4.3 7.4 3.6.2-.2.2-.4.1-.6l-1.6-7.2 4.3 5.8c-.6.5-.4.4 0 1.1.1.1.2.2.3.1l2-1.4c.1 0 .1 0 .1-.1s0-.1-.1-.1c-.5-1-.4-.8-.9-.5l.1-.5z" id="path37" />
<path class="st1" d="M129.3 37.6h-4.7v-7.4h4.5c.1.4.1.9 0 1.3h-3v1.6h2.5c.1.4.1.9 0 1.3h-2.5v1.9h3.1c.1.5.2.9.1 1.4v-.1zm6.7 0c-.6.1-1.2.1-1.8 0l-1.5-2.7h-.7v2.7c-.5.1-1 .1-1.5 0v-7.4c2.9-.2 5-.3 5 2.3 0 .9-.5 1.7-1.3 2.2l1.8 2.9z" id="path39" />
<path class="st0" d="M132.1 31.4v2.2c1 0 1.9.1 1.9-1.1s-.7-1.2-1.9-1.1z" id="path41" />
<path class="st1" d="M141.5 37.6h-4.6v-7.4h4.6c.1.4.1.9 0 1.3h-3v1.6h2.5c.1.4.1.9 0 1.3h-2.5v1.9h3.1c.1.5.2.9.1 1.4l-.2-.1zm-15.2 7.6v2.7c-.5.1-1 .1-1.5 0v-7.4c2.6-.1 5.2-.4 5.2 2.3 0 2.3-1.7 2.5-3.5 2.5l-.2-.1z" id="path43" />
<path class="st0" d="M126.3 41.7v2.2c1.1 0 2 .1 2-1.1s-.9-1.2-2-1.1z" id="path45" />
<path class="st1" d="M135.5 47.8h-4.6v-7.4h4.6c.1.4.1.9 0 1.3h-3v1.6h2.5c.1.4.1.9 0 1.3h-2.5v1.8h3.1c.1.4.1.9 0 1.3l-.1.1zm6.6 0c-.6.1-1.1.1-1.7 0l-1.5-2.7h-.6v2.7c-.5.1-1.1.1-1.6 0v-7.4c2.9-.2 5-.3 5 2.3 0 .9-.5 1.8-1.3 2.2l1.7 2.9z" id="path47" />
<path class="st0" d="M138.2 41.7v2.2c1 0 1.9.1 1.9-1.1s-.7-1.2-1.9-1.1z" id="path49" />
<path class="st1" d="M159.9 37.6c-.5.1-1.1.1-1.6 0l-.5-1.6H155l-.5 1.5c-.5.1-1.1.1-1.6 0l2.6-7.5c.5-.1 1-.1 1.5 0l2.9 7.6z" id="path51" />
<path class="st0" d="M157.3 34.7c-.3-1-.6-2-.8-3 0 .5-.7 2.5-.8 3h1.6z" id="path53" />
<path class="st1" d="M166.1 37.5c-.6.1-1.1.1-1.7 0l-1.5-2.7h-.7v2.6c-.5.1-1 .1-1.5 0V30c2.9-.2 5-.3 5 2.3 0 .9-.5 1.7-1.3 2.2l1.7 3z" id="path55" />
<path class="st0" d="M162.1 31.3v2.2c1 0 1.9 0 1.9-1.2s-.7-1.1-1.8-1.1l-.1.1z" id="path57" />
<path class="st1" d="M156.6 41.6h-2v6.1c-.5.1-1 .1-1.5 0v-6.1h-2c-.1-.5-.1-.9 0-1.4h5.5c.1.4.2.9.1 1.3l-.1.1zm5.6 6.1h-4.6v-7.4h4.5c.1.4.1.9 0 1.3h-3v1.6h2.6c.1.4.1.9 0 1.3H159v1.8h3.1c.1.4.1.9 0 1.3l.1.1zm1-.4c-.1-.5 0-.9.1-1.4 1.2.4 3.4.8 3.4-.4 0-.6-.3-.8-1.4-1.1-3.8-1.2-2-5.6 2.5-4.1.1.4.1.9 0 1.3-1-.3-3-.5-3 .5 0 .5.4.7 1.4 1 4.2 1.3 1.7 6.2-2.8 4.1l-.2.1zm-113-11.6c.3-1.7 1.6-3.9 1.6-5.6 2.4-.4 2 0-.9 7.4-.5.1-.9.1-1.4 0-2.9-7.8-2.9-7.5-1.6-7.5s.4 0 1.2 2c.5 1.2.9 2.4 1.1 3.7zm5.7 1.8c-.5.1-1 .1-1.5 0v-7.4c.5-.1 1.1-.1 1.6 0l-.1 7.4zm6.5-6.1h-2v6.1c-.5.1-1 .1-1.5 0v-6.1h-2c-.1-.5-.1-.9 0-1.4h5.5c.1.4.2.9.1 1.3l-.1.1zm-8.9 16.4c-.5.1-1.1.1-1.6 0l-.5-1.5h-2.7l-.5 1.5c-.5.1-1.1.1-1.6 0l2.6-7.5c.5-.1 1.1-.1 1.6 0l2.7 7.5z" id="path59" />
<path class="st0" d="M50.8 45l-.9-3c-.1.5-.7 2.5-.8 3h1.7z" id="path61" />
<path class="st1" d="M61.8 47.8c-.5.1-1 .1-1.5 0l-.1-4.5-1.6 3.8c-.4.1-.7.1-1.1 0l-1.6-3.7-.1 4.5c-.5.1-1 .1-1.5 0l.4-7.4c.4-.1.9-.1 1.3 0l2.2 5 2.2-5c.4-.1.9-.1 1.3 0l.1 7.3zm16.1-10.2h-4.7v-7.4h4.6c.1.4.1.9 0 1.3h-3v1.6h2.5c.1.4.1.9 0 1.3h-2.5v1.9h3.1c.1.5.1.9 0 1.4v-.1zm3.1-3.9c-2.6-3.6-2.4-3.6-1.3-3.6s.4-.2 1.4 1.3l.8 1.1c.6-.7 1.1-1.5 1.3-2.4.5-.1 1-.1 1.5 0-.1 1-.6 1.6-2 3.5 1.5 2.1 2.1 2.7 2.2 4h-.8c-1.3 0-.4-.1-1.2-1.4l-1-1.6c-.9 1.3-1.5 1.8-1.5 2.8-.5.1-1 .1-1.6 0 0-1.3.4-1.6 2.1-3.9v.2zm7.8-2.3c-2.8 0-2.9 5 0 5 1.6 0 1.8-.7 1.8.5v.5c-1.6.8-5.4.9-5.4-3.3 0-3.7 3.2-4.5 5.4-3.5v.5c0 1.4 0 .5-1.8.5v-.2zM75.7 48c-2 0-3.1-1.4-3.1-3.8s1.1-3.8 3.1-3.8 3.1 1.4 3.1 3.8-1 3.8-3.1 3.8z" id="path63" />
<path class="st0" d="M75.7 41.7c-.9 0-1.5.7-1.5 2.5s.6 2.5 1.5 2.5 1.5-.7 1.5-2.5-.5-2.5-1.5-2.5z" id="path65" />
<path class="st1" d="M84.3 47.9h-4.6v-7.5c.5-.1 1-.1 1.6 0v6.1h3c.1.4 0 .9 0 1.4zm3.4.1c-3.5 0-2.9-2.4-2.9-7.5.5-.1 1-.1 1.5 0 0 5.2-.3 6.3 1.2 6.3s1.3-1.2 1.3-6.3c.5-.1 1-.1 1.5 0 0 5 .6 7.5-2.9 7.5h.3z" id="path67" />
<path class="st1" d="m 270.1,6.3 c 0,6.2 0.3,6.5 -0.8,6.4 -2.8,-0.3 -2.8,0.4 -2.8,-2 h -7.3 v 29.2 c 1.4,0.1 2,-0.1 2,0.9 -0.4,3.7 1.7,2.8 -8.7,2.8 -0.4,0 -0.5,-0.2 -0.5,-0.7 0.3,-3.2 -0.4,-2.7 2,-2.9 V 10.7 h -7 c -0.1,1.4 0.2,2 -0.8,1.9 -2.1,-0.2 -2.8,0.1 -2.8,-0.5 V 6.3 Z m 36.2,34.4 c -0.2,2.1 0.1,2.8 -0.5,2.8 -8.8,0 -8.8,0.3 -8.7,-0.7 0.3,-3.2 -0.5,-2.7 1.9,-2.9 V 27 h -16.7 v 12.9 c 1.3,0.1 2,-0.1 1.9,0.9 -0.3,2.1 0,2.8 -0.6,2.8 -8.9,0 -8.9,0.3 -8.8,-0.8 0.3,-3.2 -0.4,-2.7 1.9,-2.9 v -30 c -1.4,-0.1 -2,0.1 -2,-0.9 0.2,-2.2 -0.1,-2.8 0.5,-2.8 8.8,0 8.8,-0.3 8.7,0.7 -0.3,3.2 0.4,2.7 -1.9,2.9 v 12.6 h 16.7 V 9.9 c -1.4,-0.1 -2,0.1 -2,-0.9 0.2,-2.2 -0.1,-2.8 0.5,-2.8 8.8,0 8.8,-0.3 8.7,0.8 -0.4,3.2 0.4,2.7 -2,2.9 v 30 c 1.3,0.1 2,-0.1 1.9,0.9 z m 30.1,-3.4 c 0.6,0 0.4,0.5 0.4,6.2 -25.3,0 -23.9,0.4 -23.8,-0.7 0.3,-3.2 -0.4,-2.7 1.9,-2.9 V 10 c -1.4,-0.1 -2,0.1 -1.9,-0.9 0.2,-2.1 -0.1,-2.8 0.5,-2.8 h 22.4 c 0,6.3 0.2,6.5 -0.8,6.4 -3.2,-0.3 -2.7,0.4 -2.9,-1.9 h -11.9 v 11.3 h 13.5 v 4.4 H 320.3 V 39 H 333 c 0.1,-1.3 -0.1,-2 0.9,-1.9 z M 392.2,7.1 c -0.3,2.9 0.5,2.9 -2.1,2.9 v 19.9 c 0,9.7 -3.8,14.3 -13.5,14.3 -16,0 -13.3,-9.8 -13.3,-34.2 -1.3,-0.1 -2,0.1 -1.9,-0.9 0.2,-2.1 -0.1,-2.8 0.5,-2.8 8.8,0 8.8,-0.3 8.7,0.8 -0.3,3.2 0.5,2.7 -1.9,2.9 v 20.8 c 0,6 1.8,9.2 7.8,9.2 6.8,0 8.3,-4.1 8.3,-9.2 V 9.9 c -1.3,-0.1 -2,0.1 -1.9,-0.9 0.3,-2.1 0,-2.8 0.6,-2.8 8.8,0 8.9,-0.3 8.8,0.8 z m 40.2,0 c -0.3,3 0.5,2.9 -2.4,2.9 v 33.6 h -3.6 c -0.2,0 -0.4,-0.1 -0.5,-0.3 L 406.3,15.9 V 40 c 0.6,0 1.3,0 1.9,0.1 0.3,0 0.5,0.3 0.4,0.8 -0.4,3.6 1.8,2.8 -8.7,2.8 -0.4,0 -0.6,-0.3 -0.5,-0.8 0.3,-3.2 -0.5,-2.7 1.9,-2.9 V 9.9 c -1.4,-0.1 -2,0.1 -1.9,-0.9 0.4,-3.6 -1.3,-2.8 5.8,-2.8 0.2,0 0.5,0.1 0.6,0.3 l 19.2,27 V 9.9 c -1.4,-0.1 -2,0.1 -1.9,-0.9 0.2,-2.2 0,-2.8 0.5,-2.8 8.8,0.1 8.9,-0.2 8.8,0.9 z m 16.9,33.6 c -0.2,2.2 0.1,2.8 -0.5,2.8 -8.8,0 -8.8,0.3 -8.7,-0.7 0.3,-3.2 -0.4,-2.7 1.9,-2.9 V 10 c -1.4,-0.1 -2,0.1 -2,-0.9 0.2,-2.2 0,-2.8 0.5,-2.8 8.8,0 8.8,-0.3 8.7,0.8 -0.4,3.2 0.4,2.7 -2,2.9 v 29.9 c 1.3,0.2 2,-0.1 1.9,0.9 z M 488.4,7.1 c -0.3,3.2 0.4,2.7 -1.9,2.9 -2.6491,7.228555 -4.7078,12.905203 -6.32073,17.362496 C 473.93792,44.610333 474.37143,43.6 473.1,43.6 l -4,-0.1 c -0.4,0 -12.6,-33.1 -12.8,-33.4 -1.3,-0.1 -2,0.1 -1.9,-0.9 0.3,-2.2 0,-2.8 0.5,-2.8 9,0 9,-0.3 8.9,0.7 -0.3,3.2 0.4,2.7 -1.9,2.9 l 9.6,27 h 0.2 l 9.6,-27.1 c -1.3,-0.1 -2,0.1 -1.9,-0.9 0.3,-2.2 0,-2.8 0.6,-2.8 8.7,0 8.7,-0.3 8.6,0.7 z m 28.5,30.2 c 0.6,0 0.4,0.5 0.4,6.2 -25.3,0 -23.9,0.4 -23.8,-0.7 0.3,-3.2 -0.4,-2.7 1.9,-2.9 V 10 c -1.4,-0.1 -2,0.1 -1.9,-0.9 0.2,-2.1 -0.1,-2.8 0.5,-2.8 h 22.4 c 0,6.3 0.2,6.5 -0.8,6.4 -3.2,-0.3 -2.7,0.4 -2.9,-1.9 h -11.9 v 11.3 h 13.5 v 4.4 H 500.8 V 39 h 12.7 c 0.1,-1.3 -0.2,-2 0.8,-1.9 z m 34.3,3.4 c -0.2,2.2 0.1,2.8 -0.5,2.8 h -5.4 l -8.1,-14.3 h -5.3 v 10.7 c 1.4,0.1 2,-0.1 2,0.9 -0.2,2.2 0.1,2.8 -0.5,2.8 -8.8,0 -8.8,0.3 -8.7,-0.7 0.4,-3.2 -0.4,-2.7 2,-2.9 V 10 c -1.4,-0.1 -2,0.1 -1.9,-0.9 0.3,-2.1 0,-2.8 0.6,-2.8 12.7,0 24.6,-1.7 24.6,11.1 0.2,4.7 -2.7,9 -7.1,10.7 l 6.8,11.8 c 1.3,0.2 2,-0.1 1.9,0.9 z m -7.1,-23.3 c 0,-7.7 -6.5,-6.9 -12.3,-6.9 v 14.4 c 5.1,0 12.4,0.9 12.4,-7.4 z m 36.5,15.9 c 0,11 -13.8,12.5 -23.5,8.4 0,-6.2 -0.3,-6.5 0.9,-6.4 4,0.3 3.4,-0.6 3.5,3.2 6,1.4 13.8,1.5 13.8,-4.6 0,-4.3 -1.6,-5.1 -9,-7.8 -5.3,-2 -9,-4.8 -9,-10.1 0,-9.9 11.6,-11.4 21.2,-9 v 6.3 c 0,1 -1.5,0.6 -3.8,0.4 -0.7,0 -0.5,-1 -0.5,-3 -1.3,-0.2 -2.5,-0.3 -3.8,-0.3 -4.4,0 -7.3,2 -7.3,5.3 0,8.5 17.8,4.7 17.8,17.5 z m 16,7.4 c -0.2,2.1 0.1,2.8 -0.5,2.8 -8.8,0 -8.8,0.3 -8.7,-0.7 0.3,-3.2 -0.4,-2.7 2,-2.9 V 10 c -1.3,-0.1 -2,0.1 -1.9,-0.9 0.3,-2.2 0,-2.8 0.6,-2.8 8.8,0 8.9,-0.3 8.8,0.8 -0.3,3.2 0.4,2.7 -1.9,2.9 v 29.9 c 1.4,0.2 2,-0.1 1.9,0.9 z M 629.1,6.3 c 0,6.2 0.3,6.4 -0.8,6.3 -2.9,-0.3 -2.9,0.4 -2.9,-2 h -7.3 v 29.2 c 1.3,0.1 2,-0.1 1.9,0.9 -0.4,3.6 1.8,2.8 -8.7,2.8 -0.4,0 -0.6,-0.3 -0.5,-0.7 0.3,-3.2 -0.4,-2.7 1.9,-2.9 V 10.7 H 606 c -0.1,1.4 0.1,2 -0.9,1.9 -2.1,-0.2 -2.8,0.1 -2.8,-0.5 V 6.3 Z M 661.9,7 c -0.3,3.2 0.4,2.7 -1.9,2.9 l -10.5,20.5 v 9.5 c 1.3,0.1 2,-0.1 1.9,0.9 -0.2,2.2 0.1,2.8 -0.5,2.8 -8.8,0 -8.8,0.3 -8.7,-0.8 0.3,-3.2 -0.4,-2.7 1.9,-2.9 V 30.4 L 633.8,9.9 c -1.3,-0.1 -2,0.1 -1.9,-0.9 0.2,-2.1 -0.1,-2.8 0.5,-2.8 8.8,0 8.8,-0.3 8.7,0.8 -0.3,3.2 0.4,2.7 -1.9,2.9 l 7.5,15.4 h 0.2 l 7.7,-15.5 c -1.3,-0.1 -2,0.1 -1.9,-0.9 0.2,-2.2 -0.1,-2.8 0.5,-2.8 8.7,0 8.7,-0.3 8.6,0.7 z m 48,17.9 c 0,12.7 -5.6,18.8 -15,18.8 -9.4,0 -15,-6.3 -15,-18.9 0,-9 3.4,-18.9 15.1,-18.9 10.1,0.1 15,7.8 14.9,19 z m -24.3,-0.1 c 0,6.3 1.5,14.4 9.3,14.4 6.5,0 9.4,-5.6 9.4,-14.5 0,-6.4 -1.6,-14.3 -9.3,-14.3 -7.7,0 -9.4,8.2 -9.4,14.4 z m 53,-18.5 c 0,6.3 0.3,6.5 -0.8,6.4 -3.2,-0.3 -2.7,0.4 -2.9,-1.9 h -12 v 11.4 h 13 v 4.4 h -13 V 40 c 1.3,0.1 2,-0.1 1.9,0.9 -0.3,2.1 0,2.8 -0.6,2.8 -8.9,0 -8.9,0.3 -8.8,-0.8 0.3,-3.2 -0.4,-2.7 1.9,-2.9 V 9.9 c -1.4,-0.1 -2,0.1 -2,-0.9 0.2,-2.2 -0.1,-2.8 0.5,-2.8 z M 345,60.8 c 0.9,0 1.3,0.6 1.2,1.7 -0.7,7 0.9,6 -4.1,6.4 l -17.9,70.5 c -0.5,2.2 -2.5,3.7 -4.8,3.7 l -8.2,-0.3 c -2.1,0 -0.7,3.3 -16.3,-63.9 h -0.1 l -14.2,59.3 c -0.5,2.2 -1.9,5.1 -5.6,5 l -8,-0.3 c -2,0 -0.5,3.8 -19.3,-73.9 l -3.1,-0.2 c -0.7,0 -1,-0.7 -1,-1.7 0.5,-4.6 -0.2,-6.1 1.2,-6.1 H 262 c 0.9,0 1.3,0.7 1.2,1.7 -0.7,7 0.9,6 -4.1,6.4 l 13.6,61.9 h 0.1 L 288,66 c 0.9,-3.7 2.6,-5 5.2,-4.9 7,0.3 7.3,0 7.9,2.4 l 15.4,67.6 h 0.1 l 14.2,-62 -3.2,-0.2 c -0.8,0 -1.1,-0.7 -1,-1.7 0.5,-4.7 -0.2,-6.1 1.1,-6.1 z m 59.6,69.4 v 12.9 h -51.4 c -0.9,0 -1.3,-0.6 -1.2,-1.7 0.7,-7 -1,-6 4.2,-6.3 V 68.9 l -3.3,-0.2 c -0.7,0 -1.1,-0.7 -1,-1.7 0.5,-4.7 -0.2,-6.2 1.2,-6.2 h 49.6 v 12.9 c 0,0.8 -0.6,1.3 -1.7,1.2 -7,-0.7 -6,1 -6.4,-4.2 h -26.4 v 25.1 h 29.9 v 9.8 h -29.9 v 27.6 h 28.2 l 0.2,-3.3 c 0,-0.8 0.7,-1.1 1.7,-1 5.9,0.4 6.3,0.1 6.3,1.3 z m 60,-9.7 c 0,24.3 -30.5,27.7 -52.1,18.6 v -12.8 c 0,-1 0.7,-1.5 2,-1.4 6.5,0.5 7.2,0.1 7.4,1.4 l 0.2,5.7 c 13.3,3.1 30.5,3.3 30.5,-10.3 0,-9.4 -3.6,-11.3 -19.9,-17.2 -11.9,-4.4 -20,-10.5 -20,-22.3 0,-21.9 25.4,-25.2 46.8,-19.9 v 13.9 c 0,2 -2.1,1.4 -8.4,1 -1.3,0 -1.1,-0.9 -1.3,-6.7 -2.8,-0.3 -5.6,-0.5 -8.4,-0.5 -9.9,0 -16.4,4.6 -16.4,11.9 0,19 39.4,10.4 39.4,38.7 z M 528,60.8 v 12.9 c 0,0.8 -0.6,1.3 -1.7,1.2 -4.9,-0.5 -5.9,0.2 -6.2,-1.2 0,-0.2 -0.2,-3 -0.2,-3.2 H 503.8 V 135 c 5.1,0.3 4.4,-0.9 3.9,7.2 0,1.2 0.4,0.9 -19,0.9 -1.6,0 -1.2,-1.6 -0.9,-7 0,-1 1.2,-0.9 3.9,-1.1 V 70.6 h -15 c -0.3,5.1 0.9,4.4 -7.2,3.9 -1.2,0 -0.9,0.2 -0.9,-13.7 z m 60.3,69.4 v 12.9 h -51.4 c -0.8,0 -1.3,-0.6 -1.2,-1.7 0.7,-7 -1,-6 4.2,-6.3 V 68.9 l -3.2,-0.2 c -0.7,0 -1,-0.7 -1,-1.7 0.5,-4.7 -0.2,-6.2 1.2,-6.2 h 49.7 v 12.9 c 0,0.8 -0.6,1.3 -1.7,1.2 -7,-0.7 -6,1 -6.3,-4.2 H 552.2 V 95.8 H 582 v 9.8 h -29.9 v 27.6 h 28.2 l 0.2,-3.3 c 0,-0.8 0.7,-1.1 1.7,-1 5.7,0.4 6.2,0.1 6.1,1.3 z m 68.2,5.1 c 0.8,0 1.1,0.7 1,1.7 -0.5,4.7 0.2,6.1 -1.1,6.1 h -12.1 l -18,-31.8 h -11.7 v 23.8 l 3.3,0.2 c 0.8,0 1.1,0.8 1,1.7 -0.5,4.7 0.2,6.2 -1.2,6.2 h -18.2 c -0.8,0 -1.2,-0.6 -1.1,-1.7 0.7,-7 -1,-6 4.3,-6.3 V 68.9 l -3.3,-0.2 c -0.7,0 -1,-0.7 -1,-1.7 0.6,-4.6 -0.2,-6.2 1.2,-6.2 h 24 c 20.7,0 30.5,7.8 30.5,24.6 0,10.7 -5.6,19.8 -15.7,23.7 l 15.1,26 z M 641.8,85.4 c 0,-17 -14.4,-15.3 -27.2,-15.3 v 31.7 c 11.1,0.1 27.3,2.1 27.2,-16.4 z m 96.1,-24.6 c 0.9,0 1.3,0.6 1.2,1.7 -0.5,4.9 0.2,5.9 -1.1,6.1 -1.3,0.1 -2.7,0.2 -4,0.2 V 143 h -8 c -1,0 2,3.8 -44.5,-61.3 V 135 c 1.4,0 2.9,0.1 4.3,0.2 0.7,0 1.1,0.8 1,1.7 -0.5,4.7 0.2,6.2 -1.2,6.2 h -18.2 c -0.8,0 -1.2,-0.6 -1.1,-1.7 0.7,-7 -1,-6 4.3,-6.3 V 68.9 l -3.3,-0.2 c -0.7,0 -1,-0.7 -1,-1.7 0.6,-4.7 -0.2,-6.2 1.2,-6.2 13.2,0 12.3,-0.3 13,0.7 l 42.3,59.4 v -52 l -3.3,-0.2 c -0.7,0 -1,-0.7 -1,-1.7 0.5,-4.7 -0.2,-6.2 1.2,-6.2 z M 307,225.1 c -0.4,3.7 0.1,5.3 -0.9,5.3 h -15.9 c -0.7,0 -1.1,-0.5 -1,-1.4 0.6,-6 -0.8,-5.1 3.5,-5.4 l -3.5,-10.1 h -28.8 l -3.4,10 c 2.9,0.2 3.8,-0.1 3.6,1.6 -0.5,4 0.1,5.2 -1,5.2 h -15.3 c -0.8,0 -1.1,-0.6 -1,-1.5 0.6,-6 -0.9,-5.2 3.5,-5.5 l 20.3,-56.6 c -2.8,-0.2 -3.8,0.1 -3.6,-1.7 0.4,-4 -0.2,-5.3 1,-5.3 H 279 l 24.3,63.5 c 2.8,0.1 3.7,-0.2 3.5,1.6 z M 286.3,205 274.5,171.5 h -0.1 L 263.3,205 Z m 77.4,-45.1 c 0.7,0 1.1,0.5 1,1.4 -0.4,4.2 0.1,5.1 -1,5.3 -0.4,0 -2.5,0.2 -2.9,0.2 v 37.6 c 0,18.4 -7.2,27 -25.5,27 -17.5,0 -25.1,-5.9 -25.1,-27 v -37.5 c -2.9,-0.2 -3.8,0.2 -3.6,-1.6 0.4,-4 -0.2,-5.2 1,-5.2 h 15.5 c 0.7,0 1.1,0.6 1,1.5 -0.6,6 0.8,5.2 -3.6,5.5 v 39.4 c 0,11.3 3.4,17.4 14.8,17.4 12.7,0 15.6,-7.8 15.6,-17.3 V 167 c -4.3,-0.3 -3.8,0.8 -3.4,-6.2 0,-0.4 0.2,-0.7 0.6,-0.7 h 0.1 z m 51.5,51.1 c 0,20.9 -26.2,23.7 -44.5,15.9 v -11 c 0,-0.8 0.7,-1.3 1.8,-1.2 5.5,0.5 6.2,0 6.4,1.2 l 0.2,4.9 c 11.4,2.7 26.2,2.8 26.2,-8.8 0,-8.1 -3,-9.7 -17,-14.7 -10.1,-3.8 -17.1,-9 -17.1,-19.1 0,-18.8 21.7,-21.6 40,-17.1 V 173 c 0,1.7 -1.8,1.2 -7.2,0.8 -1.1,0 -0.9,-0.8 -1.1,-5.7 -2.4,-0.3 -4.7,-0.4 -7.1,-0.5 -8.4,0 -14,3.9 -14,10.2 0.1,16.3 33.8,9 33.8,33.1 h -0.4 z m 55.5,-51.1 V 171 c 0,0.7 -0.6,1.1 -1.5,1 -4.2,-0.4 -5.1,0.1 -5.3,-1 l -0.2,-2.7 H 450 v 55.2 c 4.3,0.3 3.8,-0.8 3.4,6.2 0,1 0.4,0.7 -16.2,0.7 -1.4,0 -1,-1.3 -0.7,-6 0,-0.4 0.3,-0.7 0.7,-0.7 l 2.6,-0.2 V 168.3 H 427 c -0.3,4.3 0.8,3.8 -6.2,3.4 -1,0 -0.7,0.1 -0.7,-11.7 z m 57.4,65.2 c -0.5,4 0.1,5.3 -1,5.3 h -10.4 l -15.4,-27.2 h -10 v 20.3 c 2.9,0.2 3.8,-0.1 3.6,1.6 -0.5,4 0.1,5.3 -1,5.3 h -15.5 c -0.8,0 -1.1,-0.5 -1,-1.4 0.6,-6 -0.8,-5.1 3.6,-5.4 V 167 c -2.9,-0.2 -3.8,0.1 -3.7,-1.6 0.4,-4 -0.2,-5.3 1,-5.3 24,0 46.5,-3.1 46.5,21.1 0,9.1 -4.8,17 -13.5,20.2 l 12.9,22.2 c 2.8,0.2 3.8,-0.1 3.6,1.6 z M 514.7,181 c 0,-14.6 -12.4,-13.1 -23.3,-13.1 V 195 c 9.3,0.1 23.3,1.8 23.3,-14 z m 81.2,44.1 c -0.4,3.7 0.1,5.3 -0.9,5.3 h -15.9 c -0.7,0 -1.1,-0.5 -1,-1.4 0.6,-6 -0.8,-5.1 3.5,-5.4 l -3.5,-10 h -28.7 l -3.4,10 c 2.9,0.2 3.9,-0.1 3.7,1.7 -0.4,4 0.2,5.3 -1,5.3 h -15.4 c -0.7,0 -1.1,-0.5 -1,-1.4 0.6,-6 -0.8,-5.1 3.6,-5.4 l 20.3,-56.6 c -2.8,-0.2 -3.7,0.1 -3.5,-1.6 0.5,-4 -0.1,-5.2 1,-5.2 H 568 l 24.3,63.5 c 2.8,0.2 3.8,-0.1 3.6,1.6 z M 575.2,205 563.4,171.5 h -0.1 L 552.2,205 Z m 71.4,14.3 v 11.1 h -44 c -0.7,0 -1.1,-0.5 -1,-1.4 0.6,-6 -0.8,-5.1 3.6,-5.4 V 167 c -2.9,-0.2 -3.8,0.1 -3.6,-1.6 0.4,-4 -0.2,-5.3 1,-5.3 h 15.5 c 0.7,0 1.1,0.5 1,1.4 -0.6,6 0.8,5.1 -3.6,5.4 V 222 h 24.3 c 0.2,-2.9 -0.1,-3.8 1.7,-3.7 4.5,0.2 5.3,0 5.3,1 z m 23,5.8 c -0.5,4 0.2,5.3 -1,5.3 H 653 c -0.7,0 -1.1,-0.5 -1,-1.4 0.6,-6 -0.8,-5.1 3.6,-5.4 V 167 c -2.9,-0.2 -3.8,0.1 -3.6,-1.6 0.4,-4 -0.2,-5.3 1,-5.3 h 15.5 c 0.7,0 1.1,0.5 1,1.4 -0.6,6 0.8,5.1 -3.6,5.4 v 56.6 c 2.9,0.1 3.9,-0.2 3.7,1.6 z m 69.5,0 c -0.4,3.8 0.1,5.3 -0.9,5.3 h -15.9 c -0.7,0 -1.1,-0.5 -1,-1.4 0.6,-6 -0.8,-5.1 3.5,-5.4 l -3.5,-10.1 h -28.8 l -3.4,10.1 c 2.9,0.2 3.8,-0.1 3.6,1.6 -0.5,4 0.1,5.3 -1,5.3 h -15.3 c -0.8,0 -1.1,-0.5 -1,-1.4 0.6,-6 -0.8,-5.1 3.5,-5.4 l 20.3,-56.6 c -2.8,-0.1 -3.8,0.2 -3.6,-1.6 0.4,-4 -0.2,-5.2 1,-5.2 H 711 l 24.3,63.5 c 2.8,0.2 3.7,-0.1 3.5,1.7 z M 718.4,205 706.6,171.5 h -0.1 L 695.3,205 Z" id="path1731" style="stroke-width:0;fill:white" sodipodi:nodetypes="ccccccscccccscccsccccccsccccsccccccscccccccccccsccccccccccccccssccsccsssccscccccscccccsccccscccccccsccccscccccccsccccsccccccsccccccccscccccccccccccscccccsccccsccccccccccccccscscsccsscccsccccscccccccccccscccccscccccccscccccsccccccscccssccsssssccccccccccsccccccccccccccccccccssscccccccccccccscscccccscscccccccccccsccssccscscsccsscccsccccccscccccccccscccccscsccccccccccccccsccccccsscccccssscccccccsccccsccccsscccccscccccsscssccccccssccccscccccccccccccsssccssccsssccsccscssccscscsccccccscsccccccscccccccccscccccssccccssccccsccscssccccccssccccscccccccccccsccccssccccccccssccccsscccccssccccccssccccsccccccccc" inkscape:label="path9" />
</svg>
